<?xml version="1.0" encoding="iso-8859-1"?>
<!-- Generator: Adobe Illustrator 15.0.0, SVG Export Plug-In . SVG Version: 6.00 Build 0)  -->
<!DOCTYPE svg PUBLIC "-//W3C//DTD SVG 1.1//EN" "http://www.w3.org/Graphics/SVG/1.1/DTD/svg11.dtd">
<svg xmlns="http://www.w3.org/2000/svg" xmlns:xlink="http://www.w3.org/1999/xlink" version="1.1" id="Layer_1" x="0px" y="0px" width="512" height="512" viewBox="0 0 128 128" style="enable-background:new 0 0 128 128;" xml:space="preserve">
<g>
	<circle style="fill:#88C5CC;" cx="64" cy="64" r="64"/>
	<path style="fill:#CCCCCC;" d="M98,79.979V28H71v89h28.881c3.674-2.492,7.064-5.365,10.139-8.547C102.51,101.57,98,91.22,98,79.979   z"/>
	<path style="fill:#B3B3B3;" d="M98,79.979V28h-4v51.979c0,11.241,7,21.568,7,26.021c0,4.423-1.445,8.508-5.119,11h4   c3.674-2.492,7.064-5.365,10.139-8.547C102.51,101.57,98,91.22,98,79.979z"/>
	<path style="fill:#66401E;" d="M28.119,117c10.234,6.941,22.583,11,35.881,11s25.646-4.059,35.881-11H28.119z"/>
	<path style="fill:#C2E2F2;" d="M63.029,30c0-0.552-0.465-1-1.016-1s-1.007,0.448-1.007,1c0,4.418-3.586,8-8.004,8   s-8.002-3.582-8.002-8c0-0.552-0.45-1-1.001-1s-1,0.448-1,1c0,4.418-3.582,8-8,8s-8-3.582-8-8c0-0.552-0.449-1-1-1s-1,0.448-1,1   c0,4.418-3.582,8-8,8c-4.036,0-7.365-2.992-7.912-6.877C5.29,37.453,2.564,44.495,1.141,52H71l0.061-14   C66.643,38,63.029,34.418,63.029,30z"/>
	<path style="fill:#91D2F2;" d="M70.008,40c0,4.418-3.586,8-8.004,8s-8.002-3.582-8.002-8c0-0.552-0.45-1-1.001-1S52,39.448,52,40   c0,4.418-3.582,8-8,8s-8-3.582-8-8c0-0.552-0.449-1-1-1s-1,0.448-1,1c0,4.418-3.582,8-8,8s-8-3.582-8-8c0-0.552-0.449-1-1-1   s-1,0.448-1,1c0,4.418-3.582,8-8,8c-2.078,0-3.965-0.799-5.389-2.099C1.102,51.029,0.221,56.424,0.05,62H71V39.003   C70.456,39.011,70.008,39.453,70.008,40z"/>
	<path style="fill:#2179A6;" d="M63.029,50c0-0.552-0.465-1-1.016-1s-1.007,0.448-1.007,1c0,4.418-3.586,8-8.004,8   s-8.002-3.582-8.002-8c0-0.552-0.45-1-1.001-1s-1,0.448-1,1c0,4.418-3.582,8-8,8s-8-3.582-8-8c0-0.552-0.449-1-1-1s-1,0.448-1,1   c0,4.418-3.582,8-8,8s-8-3.582-8-8c0-0.552-0.449-1-1-1s-1,0.448-1,1c0,3.975-2.902,7.264-6.702,7.885C0.105,59.899,0,61.937,0,64   c0,22.048,11.15,41.49,28.119,53H71l0.061-59C66.643,58,63.029,54.418,63.029,50z"/>
	<circle style="fill:#A66830;" cx="43" cy="120" r="1"/>
	<circle style="fill:#A66830;" cx="48" cy="122" r="1"/>
	<circle style="fill:#A66830;" cx="53" cy="120" r="1"/>
	<circle style="fill:#A66830;" cx="67" cy="121" r="1"/>
	<circle style="fill:#A66830;" cx="61" cy="125" r="1"/>
	<circle style="fill:#A66830;" cx="56" cy="123" r="1"/>
	<circle style="fill:#A66830;" cx="59" cy="119" r="1"/>
	<circle style="fill:#A66830;" cx="71" cy="125" r="1"/>
	<circle style="fill:#A66830;" cx="78" cy="120" r="1"/>
	<circle style="fill:#A66830;" cx="77" cy="123" r="1"/>
	<path style="fill:#CCCCCC;" d="M55,79c0.55,0,0.891-0.438,0.758-0.97l-0.516-2.061c-0.133-0.534-0.676-0.847-1.204-0.694   l-5.076,1.449c-0.528,0.151-1.163,0.678-1.409,1.17l-0.104,0.211C47.201,78.598,47.45,79,48,79H55z"/>
	<path style="fill:#406A80;" d="M64,82c0,2.209-1.925,4-8,4s-14-1.791-14-4s7.925-4,14-4S64,79.791,64,82z"/>
	<path style="fill:#CCCCCC;" d="M57,82c0,1.484,0.393,2.841,1.364,3.889C62.58,85.473,64,83.891,64,82s-1.42-3.473-5.636-3.889   C57.393,79.159,57,80.516,57,82z"/>
	<path style="fill:#CCCCCC;" d="M40,79c-0.475,0-0.925,0.052-1.359,0.126C39.48,79.878,40,80.887,40,82s-0.52,2.122-1.359,2.874   C39.075,84.948,39.525,85,40,85c2.762,0,5-1.343,5-3S42.762,79,40,79z"/>
	<circle style="fill:#242424;" cx="60" cy="81" r="1"/>
</g>
</svg>
